<svg width="75" height="75" viewBox="0 0 75 75" fill="none" xmlns="http://www.w3.org/2000/svg">
<rect x="14.8615" y="22.134" width="46.032" height="37.0721" rx="5.09601" fill="#FFD0DA"/>
<rect x="14.8615" y="22.134" width="46.032" height="37.0721" rx="5.09601" stroke="#A2091F" stroke-width="1.232"/>
<ellipse cx="19.9574" cy="26.11" rx="1.12" ry="1.12" fill="#FF9EA9"/>
<ellipse cx="24.4374" cy="26.11" rx="1.12" ry="1.12" fill="#FF9EA9"/>
<ellipse cx="28.9174" cy="26.11" rx="1.12" ry="1.12" fill="#FF9EA9"/>
<rect x="17.7178" y="29.4702" width="40.32" height="26.8801" rx="2.24" fill="#FF6C7A"/>
<path d="M36.4705 36.3074C35.5863 35.7632 34.4478 36.3994 34.4478 37.4377V43.9023C34.4478 44.9406 35.5863 45.5768 36.4705 45.0327L41.7231 41.8003C42.5652 41.2821 42.5652 40.0579 41.7231 39.5397L36.4705 36.3074Z" fill="#FFD0DA"/>
<rect x="21.0776" y="49.6304" width="33.6" height="2.24001" rx="1.12" fill="#FF9EA9"/>
<rect opacity="0.4" x="21.0776" y="49.6304" width="5.6" height="2.24001" rx="1.12" fill="#FFF6F8"/>
<path d="M26.2884 52.9903C27.5255 52.9903 28.5284 51.9874 28.5284 50.7503C28.5283 49.5131 27.5255 48.5103 26.2883 48.5103C25.0512 48.5103 24.0483 49.5131 24.0484 50.7503C24.0484 51.9874 25.0513 52.9903 26.2884 52.9903Z" fill="#FFF6F8"/>
</svg>
