<svg width="75" height="75" viewBox="0 0 75 75" fill="none" xmlns="http://www.w3.org/2000/svg">
<path d="M51.5415 45.8848L44.8931 48.4418L48.473 52.5332L51.0301 51.5103L51.5415 45.8848Z" fill="#DDD5FF"/>
<path d="M44.8934 48.9535L33.864 36.1392L29.0396 48.9535H44.8934Z" fill="white"/>
<path d="M45.5304 36.7225L33.8638 36.1392L44.8932 49.2647L45.5304 36.7225Z" fill="#DDD5FF"/>
<path d="M45.5304 36.7224L37.7333 24.9167L33.8638 36.1391L45.5304 36.7224Z" fill="#F3F0FF"/>
<path d="M45.5304 36.7224L37.7334 24.9167L47.9617 27.9852L55.1215 34.6336L45.5304 36.7224Z" fill="white"/>
<path d="M44.8931 48.442L45.5302 36.7224L55.6328 44.3506L44.8931 48.442Z" fill="white"/>
<path d="M55.6328 44.3507L45.5303 36.7225L55.1214 34.6338L55.6328 44.3507Z" fill="#DDD5FF"/>
<path d="M25.9707 27.9854V39.7479L29.0392 48.9535L33.8639 36.1392L25.9707 27.9854Z" fill="#F3F0FF"/>
<path d="M25.9707 27.9852L33.8636 36.1391L37.7333 24.9167L25.9707 27.9852Z" fill="#DDD5FF"/>
<path d="M19.3226 34.1223L25.971 39.7479L29.0393 48.9535L18.811 42.8165L19.3226 42.5973V34.1223Z" fill="#DDD5FF"/>
<path d="M25.9712 27.9851V39.7477L19.3228 34.1221L25.9712 27.9851Z" fill="white"/>
<path d="M25.4334 28.4462L19.8826 33.204C19.2025 33.787 18.811 34.638 18.811 35.5338V41.5136C18.811 42.6327 19.4202 43.663 20.4008 44.2023L28.3487 48.5737C28.8018 48.8229 29.3105 48.9535 29.8275 48.9535H45.4046L47.7958 51.9425C49.0149 53.4663 51.4721 52.5805 51.4386 50.6295L51.3706 46.6709L54.0553 45.6537C55.3005 45.1819 56.0993 43.9609 56.0328 42.631L55.6983 35.9418C55.6566 35.1063 55.2755 34.3241 54.6433 33.7762L48.4592 28.4166C48.1313 28.1324 47.7468 27.921 47.3312 27.7963L38.5573 25.1642C38.0184 25.0025 37.4455 24.9921 36.9011 25.1341L26.6558 27.8068C26.2051 27.9244 25.7871 28.143 25.4334 28.4462Z" stroke="black" stroke-width="1.63653" stroke-linecap="round" stroke-linejoin="round"/>
</svg>
