<svg width="75" height="75" viewBox="0 0 75 75" fill="none" xmlns="http://www.w3.org/2000/svg">
<path d="M26.9059 56.25H46.7274C49.6466 56.25 52.0131 53.8835 52.0131 50.9643V40.3929V30.8144C52.0131 30.1743 51.7807 29.5559 51.3592 29.0741L43.5528 20.1525C43.0509 19.579 42.3259 19.25 41.5638 19.25H26.9059C24.7165 19.25 22.9417 21.0249 22.9417 23.2143V52.2857C22.9417 54.4751 24.7165 56.25 26.9059 56.25Z" fill="white" stroke="#3A3E41" stroke-width="2.11429" stroke-linecap="round" stroke-linejoin="round"/>
<path d="M30.8704 28.5L44.0846 28.5" stroke="#3A3E41" stroke-width="2.11429" stroke-linecap="round"/>
<path d="M30.8704 35.1072L36.1561 35.1072" stroke="#3A3E41" stroke-width="2.11429" stroke-linecap="round"/>
<path d="M41.5952 20.7411C41.5952 19.7651 42.8049 19.3104 43.4478 20.0448L51.6278 29.3894C52.2261 30.0729 51.7407 31.1429 50.8324 31.1429H44.2382C42.7786 31.1429 41.5953 29.9596 41.5953 28.5L41.5952 20.7411Z" fill="white" stroke="#3A3E41" stroke-width="2.11429" stroke-linejoin="round"/>
<path fill-rule="evenodd" clip-rule="evenodd" d="M45.2545 38.347C45.3343 38.0118 45.6339 37.7751 45.9785 37.7751H50.1189C50.4636 37.7751 50.7631 38.0118 50.843 38.347L51.3489 40.4718L53.691 41.824L55.5932 41.2566C55.9234 41.1581 56.2781 41.2993 56.4504 41.5977L58.5207 45.1834C58.693 45.4819 58.6378 45.8596 58.3874 46.0964L57.0901 47.3229V50.6897L58.387 51.9158C58.6374 52.1525 58.6926 52.5303 58.5202 52.8287L56.45 56.4144C56.2777 56.7129 55.923 56.854 55.5927 56.7555L53.691 56.1883L51.3493 57.5403L50.8432 59.6658C50.7634 60.0011 50.4638 60.2377 50.1192 60.2377H45.9788C45.6341 60.2377 45.3346 60.0011 45.2547 59.6658L44.7486 57.5401L42.4078 56.1886L40.5053 56.756C40.175 56.8546 39.8203 56.7134 39.648 56.415L37.5778 52.8293C37.4055 52.5308 37.4606 52.1531 37.711 51.9163L39.0082 50.69V47.3237L37.7105 46.0969C37.4601 45.8601 37.405 45.4824 37.5773 45.1839L39.6475 41.5982C39.8198 41.2998 40.1745 41.1587 40.5048 41.2572L42.4066 41.8244L44.7484 40.4723L45.2545 38.347Z" fill="#C5D9FF"/>
<path d="M45.2545 38.347L44.2261 38.1022L44.2261 38.1022L45.2545 38.347ZM50.843 38.347L51.8714 38.1022L51.8714 38.1022L50.843 38.347ZM51.3489 40.4718L50.3205 40.7166L50.4259 41.1596L50.8203 41.3873L51.3489 40.4718ZM53.691 41.824L53.1624 42.7395L53.5567 42.9672L53.9931 42.837L53.691 41.824ZM55.5932 41.2566L55.291 40.2436L55.5932 41.2566ZM56.4504 41.5977L55.5349 42.1263V42.1263L56.4504 41.5977ZM58.5207 45.1834L59.4362 44.6548V44.6548L58.5207 45.1834ZM58.3874 46.0964L59.1137 46.8646V46.8646L58.3874 46.0964ZM57.0901 47.3229L56.3638 46.5547L56.0329 46.8675V47.3229H57.0901ZM57.0901 50.6897H56.0329V51.145L56.3638 51.4579L57.0901 50.6897ZM58.387 51.9158L59.1132 51.1476L59.1132 51.1476L58.387 51.9158ZM58.5202 52.8287L59.4357 53.3573L59.4357 53.3573L58.5202 52.8287ZM56.45 56.4144L55.5345 55.8859L55.5345 55.8859L56.45 56.4144ZM55.5927 56.7555L55.8949 55.7425H55.8949L55.5927 56.7555ZM53.691 56.1883L53.9932 55.1753L53.5568 55.0451L53.1624 55.2728L53.691 56.1883ZM51.3493 57.5403L50.8207 56.6248L50.4264 56.8525L50.3209 57.2954L51.3493 57.5403ZM50.8432 59.6658L51.8716 59.9107L51.8716 59.9107L50.8432 59.6658ZM45.2547 59.6658L44.2263 59.9107V59.9107L45.2547 59.6658ZM44.7486 57.5401L45.777 57.2952L45.6715 56.8523L45.2772 56.6246L44.7486 57.5401ZM42.4078 56.1886L42.9363 55.2731L42.542 55.0454L42.1056 55.1756L42.4078 56.1886ZM40.5053 56.756L40.2031 55.743H40.2031L40.5053 56.756ZM39.648 56.415L40.5635 55.8864H40.5635L39.648 56.415ZM37.5778 52.8293L38.4933 52.3007L38.4933 52.3007L37.5778 52.8293ZM37.711 51.9163L38.4373 52.6845L38.4373 52.6845L37.711 51.9163ZM39.0082 50.69L39.7345 51.4581L40.0653 51.1453V50.69H39.0082ZM39.0082 47.3237H40.0653V46.8684L39.7345 46.5555L39.0082 47.3237ZM37.7105 46.0969L36.9843 46.8651L36.9843 46.8651L37.7105 46.0969ZM37.5773 45.1839L36.6618 44.6554L36.6618 44.6554L37.5773 45.1839ZM39.6475 41.5982L40.563 42.1268L39.6475 41.5982ZM40.5048 41.2572L40.8069 40.2441L40.8069 40.2441L40.5048 41.2572ZM42.4066 41.8244L42.1044 42.8374L42.5408 42.9676L42.9352 42.7399L42.4066 41.8244ZM44.7484 40.4723L45.277 41.3878L45.6714 41.1602L45.7768 40.7172L44.7484 40.4723ZM45.9785 36.718C45.1443 36.718 44.4193 37.2907 44.2261 38.1022L46.2829 38.5919C46.2493 38.7328 46.1234 38.8323 45.9785 38.8323V36.718ZM50.1189 36.718H45.9785V38.8323H50.1189V36.718ZM51.8714 38.1022C51.6782 37.2907 50.9531 36.718 50.1189 36.718V38.8323C49.9741 38.8323 49.8481 38.7328 49.8146 38.5919L51.8714 38.1022ZM52.3773 40.2269L51.8714 38.1022L49.8146 38.5919L50.3205 40.7166L52.3773 40.2269ZM50.8203 41.3873L53.1624 42.7395L54.2195 40.9085L51.8774 39.5563L50.8203 41.3873ZM53.9931 42.837L55.8953 42.2697L55.291 40.2436L53.3888 40.8109L53.9931 42.837ZM55.8953 42.2697C55.7565 42.3111 55.6074 42.2518 55.5349 42.1263L57.3659 41.0691C56.9489 40.3467 56.0904 40.0052 55.291 40.2436L55.8953 42.2697ZM55.5349 42.1263L57.6052 45.712L59.4362 44.6548L57.3659 41.0691L55.5349 42.1263ZM57.6051 45.712C57.5327 45.5865 57.5559 45.4277 57.6612 45.3282L59.1137 46.8646C59.7198 46.2915 59.8533 45.3772 59.4362 44.6548L57.6051 45.712ZM57.6612 45.3282L56.3638 46.5547L57.8163 48.0911L59.1137 46.8646L57.6612 45.3282ZM56.0329 47.3229V50.6897H58.1472V47.3229H56.0329ZM56.3638 51.4579L57.6607 52.684L59.1132 51.1476L57.8163 49.9215L56.3638 51.4579ZM57.6607 52.684C57.5555 52.5844 57.5323 52.4256 57.6047 52.3002L59.4357 53.3573C59.8528 52.6349 59.7194 51.7206 59.1132 51.1476L57.6607 52.684ZM57.6047 52.3002L55.5345 55.8859L57.3655 56.943L59.4357 53.3573L57.6047 52.3002ZM55.5345 55.8859C55.6069 55.7604 55.7561 55.7011 55.8949 55.7425L55.2906 57.7686C56.09 58.007 56.9484 57.6654 57.3655 56.943L55.5345 55.8859ZM55.8949 55.7425L53.9932 55.1753L53.3889 57.2014L55.2906 57.7686L55.8949 55.7425ZM53.1624 55.2728L50.8207 56.6248L51.8779 58.4558L54.2196 57.1038L53.1624 55.2728ZM50.3209 57.2954L49.8148 59.421L51.8716 59.9107L52.3777 57.7852L50.3209 57.2954ZM49.8148 59.421C49.8484 59.28 49.9743 59.1806 50.1192 59.1806V61.2949C50.9534 61.2949 51.6784 60.7222 51.8716 59.9107L49.8148 59.421ZM50.1192 59.1806H45.9788V61.2949H50.1192V59.1806ZM45.9788 59.1806C46.1236 59.1806 46.2496 59.28 46.2831 59.421L44.2263 59.9107C44.4195 60.7222 45.1446 61.2949 45.9788 61.2949V59.1806ZM46.2831 59.421L45.777 57.2952L43.7202 57.785L44.2263 59.9107L46.2831 59.421ZM45.2772 56.6246L42.9363 55.2731L41.8792 57.1041L44.22 58.4556L45.2772 56.6246ZM42.1056 55.1756L40.2031 55.743L40.8074 57.7691L42.7099 57.2017L42.1056 55.1756ZM40.2031 55.743C40.342 55.7016 40.4911 55.7609 40.5635 55.8864L38.7325 56.9435C39.1496 57.6659 40.0081 58.0075 40.8074 57.7691L40.2031 55.743ZM40.5635 55.8864L38.4933 52.3007L36.6623 53.3578L38.7325 56.9435L40.5635 55.8864ZM38.4933 52.3007C38.5657 52.4262 38.5426 52.585 38.4373 52.6845L36.9848 51.1481C36.3786 51.7212 36.2452 52.6354 36.6623 53.3578L38.4933 52.3007ZM38.4373 52.6845L39.7345 51.4581L38.282 49.9218L36.9848 51.1481L38.4373 52.6845ZM40.0653 50.69V47.3237H37.9511V50.69H40.0653ZM39.7345 46.5555L38.4368 45.3287L36.9843 46.8651L38.282 48.0919L39.7345 46.5555ZM38.4368 45.3287C38.5421 45.4282 38.5652 45.587 38.4928 45.7125L36.6618 44.6554C36.2447 45.3778 36.3781 46.292 36.9843 46.8651L38.4368 45.3287ZM38.4928 45.7125L40.563 42.1268L38.732 41.0697L36.6618 44.6554L38.4928 45.7125ZM40.563 42.1268C40.4906 42.2523 40.3415 42.3116 40.2026 42.2702L40.8069 40.2441C40.0076 40.0057 39.1491 40.3473 38.732 41.0697L40.563 42.1268ZM40.2026 42.2702L42.1044 42.8374L42.7087 40.8113L40.8069 40.2441L40.2026 42.2702ZM42.9352 42.7399L45.277 41.3878L44.2199 39.5568L41.878 40.9089L42.9352 42.7399ZM44.2261 38.1022L43.72 40.2275L45.7768 40.7172L46.2829 38.5919L44.2261 38.1022Z" fill="#3A3E41"/>
<ellipse cx="48.0489" cy="49.0062" rx="2.64286" ry="2.64294" fill="#3A3E41"/>
</svg>
