<svg width="75" height="75" viewBox="0 0 75 75" fill="none" xmlns="http://www.w3.org/2000/svg">
<g clip-path="url(#clip0_1526_43597)">
<mask id="path-1-outside-1_1526_43597" maskUnits="userSpaceOnUse" x="9.14427" y="13.8797" width="61.3362" height="68.7473" fill="black">
<rect fill="white" x="9.14427" y="13.8797" width="61.3362" height="68.7473"/>
<path fill-rule="evenodd" clip-rule="evenodd" d="M18.1027 31.7088C18.9309 30.8928 19.3247 29.6767 19.0358 28.4636C18.5962 26.6181 16.743 25.4786 14.8966 25.9183C13.0501 26.3581 11.9095 28.2107 12.3491 30.0562C12.6367 31.2639 13.5297 32.1693 14.6301 32.5276L26.0475 80.4659L29.5182 79.6393L23.6889 55.1637C24.7914 53.9684 26.0527 52.928 27.4379 52.0716C28.5933 51.3299 29.8929 50.8403 31.2512 50.6351C33.5922 50.2976 35.898 49.7484 38.1399 48.9945C39.8138 48.4291 41.3244 47.4649 42.54 46.1858C43.3193 44.9863 44.2459 43.8882 45.2981 42.9171C46.5031 42.166 47.8438 41.6573 49.2443 41.4197C51.147 41.1186 52.9952 40.54 54.7296 39.7025C56.2504 38.8544 57.5417 37.6505 58.4917 36.1947C58.9511 35.574 59.335 34.9014 59.6354 34.1909C59.7938 33.7423 59.7978 32.2741 59.1857 32.3025C58.8524 32.318 58.4875 32.5671 58.1251 32.8145C57.8218 33.0215 57.5204 33.2273 57.2409 33.2939C56.5329 33.6195 55.7907 33.8652 55.0281 34.0263C53.5312 34.3468 51.9835 34.3452 50.4885 34.0218C48.9873 33.7176 47.7152 32.9205 46.4408 32.122L46.4408 32.122C45.4545 31.5041 44.4669 30.8853 43.3707 30.4934C40.6297 29.7508 37.7074 30.0494 35.1709 31.3313C33.8521 31.983 32.4027 32.3282 30.9317 32.3409C29.4902 32.1175 28.0807 31.7242 26.7329 31.1693C25.2863 30.6354 23.7366 30.4347 22.1997 30.5822C20.7704 30.7194 19.3868 31.1544 18.1382 31.8578L18.1027 31.7088Z"/>
</mask>
<path fill-rule="evenodd" clip-rule="evenodd" d="M18.1027 31.7088C18.9309 30.8928 19.3247 29.6767 19.0358 28.4636C18.5962 26.6181 16.743 25.4786 14.8966 25.9183C13.0501 26.3581 11.9095 28.2107 12.3491 30.0562C12.6367 31.2639 13.5297 32.1693 14.6301 32.5276L26.0475 80.4659L29.5182 79.6393L23.6889 55.1637C24.7914 53.9684 26.0527 52.928 27.4379 52.0716C28.5933 51.3299 29.8929 50.8403 31.2512 50.6351C33.5922 50.2976 35.898 49.7484 38.1399 48.9945C39.8138 48.4291 41.3244 47.4649 42.54 46.1858C43.3193 44.9863 44.2459 43.8882 45.2981 42.9171C46.5031 42.166 47.8438 41.6573 49.2443 41.4197C51.147 41.1186 52.9952 40.54 54.7296 39.7025C56.2504 38.8544 57.5417 37.6505 58.4917 36.1947C58.9511 35.574 59.335 34.9014 59.6354 34.1909C59.7938 33.7423 59.7978 32.2741 59.1857 32.3025C58.8524 32.318 58.4875 32.5671 58.1251 32.8145C57.8218 33.0215 57.5204 33.2273 57.2409 33.2939C56.5329 33.6195 55.7907 33.8652 55.0281 34.0263C53.5312 34.3468 51.9835 34.3452 50.4885 34.0218C48.9873 33.7176 47.7152 32.9205 46.4408 32.122L46.4408 32.122C45.4545 31.5041 44.4669 30.8853 43.3707 30.4934C40.6297 29.7508 37.7074 30.0494 35.1709 31.3313C33.8521 31.983 32.4027 32.3282 30.9317 32.3409C29.4902 32.1175 28.0807 31.7242 26.7329 31.1693C25.2863 30.6354 23.7366 30.4347 22.1997 30.5822C20.7704 30.7194 19.3868 31.1544 18.1382 31.8578L18.1027 31.7088Z" fill="#0085FF"/>
<path d="M18.1027 31.7088L17.2382 30.8313L16.7436 31.3187L16.9045 31.9941L18.1027 31.7088ZM14.6301 32.5276L15.8283 32.2422L15.6683 31.5703L15.0115 31.3564L14.6301 32.5276ZM26.0475 80.4659L24.8493 80.7513L25.1346 81.9495L26.3328 81.6641L26.0475 80.4659ZM29.5182 79.6393L29.8035 80.8375L31.0017 80.5521L30.7164 79.3539L29.5182 79.6393ZM23.6889 55.1637L22.7835 54.3286L22.3387 54.8109L22.4907 55.4491L23.6889 55.1637ZM27.4379 52.0716L28.0856 53.1192L28.0945 53.1138L28.1032 53.1081L27.4379 52.0716ZM31.2512 50.6351L31.0754 49.416L31.0672 49.4172L31.2512 50.6351ZM38.1399 48.9945L38.5325 50.1619L38.534 50.1614L38.1399 48.9945ZM42.54 46.1858L43.4328 47.0343L43.511 46.952L43.5729 46.8568L42.54 46.1858ZM45.2981 42.9171L44.6466 41.8719L44.5481 41.9333L44.4628 42.012L45.2981 42.9171ZM49.2443 41.4197L49.0518 40.2031L49.0383 40.2053L49.2443 41.4197ZM54.7296 39.7025L55.2652 40.8116L55.2978 40.7959L55.3295 40.7782L54.7296 39.7025ZM58.4917 36.1947L57.5017 35.4619L57.48 35.4911L57.4602 35.5215L58.4917 36.1947ZM59.6354 34.1909L60.7699 34.6705L60.7844 34.6362L60.7969 34.601L59.6354 34.1909ZM59.1857 32.3025L59.1286 31.0721L59.1286 31.0721L59.1857 32.3025ZM58.1251 32.8145L57.4306 31.7972L57.4306 31.7972L58.1251 32.8145ZM57.2409 33.2939L56.9555 32.0957L56.8369 32.1239L56.7262 32.1749L57.2409 33.2939ZM55.0281 34.0263L54.7735 32.8212L54.7703 32.8219L55.0281 34.0263ZM50.4885 34.0218L50.749 32.8179L50.741 32.8162L50.7331 32.8146L50.4885 34.0218ZM46.4408 32.122L45.7348 33.1314L45.7604 33.1492L45.7868 33.1658L46.4408 32.122ZM46.4408 32.122L47.1467 31.1127L47.1212 31.0948L47.0947 31.0783L46.4408 32.122ZM43.3707 30.4934L43.7853 29.3336L43.7396 29.3173L43.6928 29.3046L43.3707 30.4934ZM35.1709 31.3313L35.7166 32.4356L35.7264 32.4306L35.1709 31.3313ZM30.9317 32.3409L30.743 33.5581L30.8421 33.5735L30.9424 33.5726L30.9317 32.3409ZM26.7329 31.1693L27.2018 30.0304L27.1808 30.0217L27.1594 30.0138L26.7329 31.1693ZM22.1997 30.5822L22.0821 29.3561L22.0821 29.3561L22.1997 30.5822ZM18.1382 31.8578L16.94 32.1431L17.3186 33.7331L18.7427 32.931L18.1382 31.8578ZM18.9671 32.5862C20.0894 31.4805 20.6269 29.828 20.234 28.1782L17.8376 28.749C18.0225 29.5254 17.7724 30.3051 17.2382 30.8313L18.9671 32.5862ZM20.234 28.1782C19.6367 25.6704 17.1188 24.1229 14.6112 24.7201L15.1819 27.1165C16.3673 26.8342 17.5558 27.5658 17.8376 28.749L20.234 28.1782ZM14.6112 24.7201C12.1036 25.3174 10.5536 27.8337 11.1509 30.3415L13.5473 29.7708C13.2655 28.5876 13.9966 27.3988 15.1819 27.1165L14.6112 24.7201ZM11.1509 30.3415C11.5421 31.984 12.7577 33.2132 14.2488 33.6988L15.0115 31.3564C14.3018 31.1253 13.7314 30.5438 13.5473 29.7708L11.1509 30.3415ZM27.2457 80.1805L15.8283 32.2422L13.4319 32.813L24.8493 80.7513L27.2457 80.1805ZM29.2328 78.4411L25.7621 79.2677L26.3328 81.6641L29.8035 80.8375L29.2328 78.4411ZM22.4907 55.4491L28.32 79.9247L30.7164 79.3539L24.8871 54.8784L22.4907 55.4491ZM26.7902 51.0239C25.3099 51.9391 23.9619 53.0511 22.7835 54.3286L24.5943 55.9989C25.6209 54.8858 26.7955 53.9169 28.0856 53.1192L26.7902 51.0239ZM31.0672 49.4172C29.5376 49.6483 28.0739 50.1997 26.7725 51.0351L28.1032 53.1081C29.1127 52.4601 30.2483 52.0323 31.4351 51.8531L31.0672 49.4172ZM37.7472 47.827C35.5759 48.5572 33.3427 49.0891 31.0754 49.416L31.4269 51.8543C33.8417 51.5061 36.22 50.9396 38.5325 50.1619L37.7472 47.827ZM41.6472 45.3373C40.5696 46.4711 39.2303 47.3261 37.7457 47.8275L38.534 50.1614C40.3973 49.5321 42.0791 48.4587 43.4328 47.0343L41.6472 45.3373ZM44.4628 42.012C43.3353 43.0525 42.3423 44.2292 41.5071 45.5148L43.5729 46.8568C44.2963 45.7434 45.1565 44.724 46.1335 43.8223L44.4628 42.012ZM49.0383 40.2053C47.4797 40.4697 45.9877 41.0359 44.6466 41.8719L45.9497 43.9624C47.0185 43.2962 48.2078 42.8448 49.4503 42.6341L49.0383 40.2053ZM54.194 38.5933C52.5681 39.3784 50.8355 39.9209 49.0518 40.2031L49.4368 42.6363C51.4585 42.3164 53.4224 41.7016 55.2652 40.8116L54.194 38.5933ZM57.4602 35.5215C56.6195 36.8098 55.4765 37.8757 54.1297 38.6267L55.3295 40.7782C57.0244 39.8331 58.4639 38.4911 59.5232 36.8678L57.4602 35.5215ZM58.501 33.7112C58.2386 34.3318 57.9031 34.9195 57.5017 35.4619L59.4817 36.9275C59.999 36.2286 60.4315 35.4709 60.7699 34.6705L58.501 33.7112ZM59.2428 33.5329C59.0551 33.5416 58.8655 33.4883 58.7098 33.3858C58.5699 33.2936 58.501 33.1913 58.4765 33.1498C58.4513 33.1072 58.449 33.0889 58.4559 33.1128C58.462 33.1337 58.4709 33.1724 58.4785 33.23C58.4942 33.3477 58.4976 33.4902 58.489 33.6223C58.4848 33.6864 58.4784 33.7381 58.4723 33.7739C58.4653 33.8155 58.4625 33.8134 58.474 33.7807L60.7969 34.601C60.8907 34.3354 60.9309 34.0316 60.9472 33.7829C60.9647 33.5144 60.9606 33.2075 60.9205 32.9057C60.8834 32.6259 60.8019 32.2423 60.5965 31.8952C60.3724 31.5166 59.8917 31.0367 59.1286 31.0721L59.2428 33.5329ZM58.8195 33.8318C59.0135 33.6994 59.1383 33.6158 59.2465 33.5581C59.2953 33.532 59.3202 33.5226 59.3257 33.5208C59.331 33.519 59.3007 33.5302 59.2428 33.5329L59.1286 31.0721C58.6937 31.0923 58.328 31.2559 58.0862 31.385C57.8379 31.5176 57.599 31.6823 57.4306 31.7972L58.8195 33.8318ZM57.5262 34.4921C58.0756 34.3613 58.5834 33.993 58.8195 33.8318L57.4306 31.7972C57.2707 31.9064 57.1587 31.9821 57.0578 32.0404C56.954 32.1004 56.9276 32.1023 56.9555 32.0957L57.5262 34.4921ZM55.2827 35.2315C56.1349 35.0514 56.9644 34.7768 57.7556 34.4129L56.7262 32.1749C56.1014 32.4622 55.4464 32.6791 54.7735 32.8212L55.2827 35.2315ZM50.228 35.2256C51.894 35.5861 53.6183 35.5878 55.286 35.2308L54.7703 32.8219C53.4441 33.1058 52.0731 33.1044 50.749 32.8179L50.228 35.2256ZM45.7868 33.1658C47.0294 33.9444 48.4874 34.8731 50.2439 35.229L50.7331 32.8146C49.4871 32.5621 48.4009 31.8967 47.0948 31.0783L45.7868 33.1658ZM45.7348 33.1314L45.7348 33.1314L47.1467 31.1127L47.1467 31.1127L45.7348 33.1314ZM42.9561 31.6533C43.9053 31.9926 44.781 32.5356 45.7868 33.1658L47.0947 31.0783C46.1281 30.4726 45.0286 29.778 43.7853 29.3336L42.9561 31.6533ZM35.7264 32.4306C37.9918 31.2858 40.6014 31.0193 43.0486 31.6823L43.6928 29.3046C40.6579 28.4824 37.4231 28.8131 34.6154 30.232L35.7264 32.4306ZM30.9424 33.5726C32.599 33.5583 34.2314 33.1695 35.7166 32.4355L34.6252 30.227C33.4729 30.7965 32.2064 31.0981 30.9211 31.1092L30.9424 33.5726ZM26.2641 32.3083C27.7019 32.9002 29.2055 33.3197 30.743 33.5581L31.1204 31.1237C29.775 30.9152 28.4595 30.5481 27.2018 30.0304L26.2641 32.3083ZM22.3174 31.8083C23.6701 31.6785 25.0339 31.8552 26.3065 32.3249L27.1594 30.0138C25.5388 29.4157 23.803 29.1909 22.0821 29.3561L22.3174 31.8083ZM18.7427 32.931C19.8416 32.312 21.0594 31.929 22.3174 31.8083L22.0821 29.3561C20.4815 29.5097 18.932 29.9969 17.5337 30.7846L18.7427 32.931ZM16.9045 31.9941L16.94 32.1431L19.3364 31.5724L19.3009 31.4234L16.9045 31.9941Z" fill="#A2091F" mask="url(#path-1-outside-1_1526_43597)"/>
<path d="M17.8513 31.988C19.1715 31.1885 20.6555 30.6966 22.1924 30.5491C23.7292 30.4016 25.279 30.6023 26.7256 31.1362C28.0733 31.6911 29.4828 32.0843 30.9244 32.3078C32.3953 32.2951 33.8448 31.9499 35.1635 31.2982C37.7 30.0163 40.6223 29.7177 43.3634 30.4603C45.876 31.3585 47.8181 33.4491 50.4811 33.9887C51.9761 34.3121 53.5238 34.3137 55.0207 33.9932C55.7833 33.8321 56.5255 33.5864 57.2335 33.2608C57.847 33.1147 58.5662 32.2978 59.1783 32.2694C59.7904 32.241 59.7865 33.7092 59.6281 34.1578C59.3277 34.8683 58.9437 35.5409 58.4843 36.1616C57.5343 37.6174 56.2431 38.8213 54.7222 39.6694C52.9879 40.5069 51.1396 41.0855 49.2369 41.3866C47.8364 41.6242 46.4957 42.1329 45.2908 42.884C44.2385 43.8551 43.3119 44.9532 42.5326 46.1527C41.317 47.4318 39.8064 48.396 38.1325 48.9614C35.8906 49.7153 33.5848 50.2645 31.2438 50.602C29.8856 50.8072 28.586 51.2968 27.4305 52.0385C25.9584 52.9486 24.6263 54.0666 23.476 55.3573L17.8513 31.988Z" fill="#FF6C7A"/>
<path d="M17.8154 30.5015L14.3447 31.3281L26.04 80.4334L29.5107 79.6067L17.8154 30.5015Z" fill="#FFD0DA"/>
<path d="M16.4809 32.5683C18.3274 32.1285 19.468 30.2759 19.0284 28.4304C18.5889 26.5849 16.7357 25.4453 14.8892 25.8851C13.0428 26.3249 11.9022 28.1775 12.3418 30.023C12.7813 31.8685 14.6345 33.008 16.4809 32.5683Z" fill="#FF6C7A"/>
</g>
<defs>
<clipPath id="clip0_1526_43597">
<rect width="74" height="74" fill="white" transform="translate(0.290039 0.75)"/>
</clipPath>
</defs>
</svg>
