<svg width="75" height="75" viewBox="0 0 75 75" fill="none" xmlns="http://www.w3.org/2000/svg">
<path d="M22.3108 24.5657H52.6441" stroke="#D7E0E6" stroke-width="1.86667" stroke-linecap="round" stroke-linejoin="round"/>
<path d="M22.3108 35.4167H52.6441" stroke="#D7E0E6" stroke-width="1.86667" stroke-linecap="round" stroke-linejoin="round"/>
<path d="M22.3108 45.9167H52.6441" stroke="#D7E0E6" stroke-width="1.86667" stroke-linecap="round" stroke-linejoin="round"/>
<path d="M33.9775 26.0833C33.9775 24.7947 35.0222 23.75 36.3109 23.75H38.6442C39.9329 23.75 40.9775 24.7947 40.9775 26.0833V49.4167C40.9775 50.7053 39.9329 51.75 38.6442 51.75H36.3109C35.0222 51.75 33.9775 50.7053 33.9775 49.4167V26.0833Z" fill="#FF9EA9" stroke="#3A3E41" stroke-width="1.86667"/>
<path d="M22.3108 38.9166C22.3108 37.6279 23.3555 36.5833 24.6441 36.5833H26.9775C28.2661 36.5833 29.3108 37.6279 29.3108 38.9166V49.4166C29.3108 50.7052 28.2661 51.7499 26.9775 51.7499H24.6441C23.3555 51.7499 22.3108 50.7052 22.3108 49.4166V38.9166Z" fill="white" stroke="#3A3E41" stroke-width="1.86667"/>
<path d="M45.644 33.0833C45.644 31.7947 46.6887 30.75 47.9774 30.75H50.3107C51.5994 30.75 52.644 31.7947 52.644 33.0833V49.4167C52.644 50.7053 51.5994 51.75 50.3107 51.75H47.9774C46.6887 51.75 45.644 50.7053 45.644 49.4167V33.0833Z" fill="white" stroke="#3A3E41" stroke-width="1.86667"/>
</svg>
